<svg id="Capa_1" data-name="Capa 1" xmlns="http://www.w3.org/2000/svg" viewBox="0 0 644.93 515.68"><defs><style>.cls-1,.cls-2{fill:none;stroke-width:2px;}.cls-1{stroke:#888a8b;}.cls-2{stroke:#747b88;}.cls-3{fill:#104cba;}</style></defs><path class="cls-1" d="M264.74,469.83a.6.6,0,0,0,.65-.45c16.75-98.7,93.3-178,191.12-199.16,140.87-30.46,275.21,58.21,301.88,199a.61.61,0,0,0,.62.47h8.49a.47.47,0,0,0,.45-.48s0,0,0-.07C757.49,399.07,714,335.39,655.25,296.75c-53.4-35.11-118.22-48.39-181-39.75-70.14,9.66-133,47.91-174.57,105.43q-33.74,46.67-43.91,106.09a1.1,1.1,0,0,0,1,1.21l.19,0,7.75.08" transform="translate(-254.5 -253.45)"/><path class="cls-1" d="M472.84,497.2,423,408.8c-.2-.36-.47-.59-.7-.59l-45-.09a.28.28,0,0,0-.27.31.42.42,0,0,0,0,.15c1.09,2.17,1.84,3.63,2.27,4.38q66.29,117.2,132.28,234.59a.29.29,0,0,0,.39.11.27.27,0,0,0,.11-.1q1.8-3,7-12.22Q583.28,522,647.37,409c.4-.71.19-1.06-.62-1q-22.5.62-45,.06a1,1,0,0,0-.79.37,67.37,67.37,0,0,0-4.81,7.53q-42.49,75.38-85,150.75c-.1.17-.2.18-.29,0l-14.72-26.52a1.09,1.09,0,0,1,0-1.09l49.13-84.78a.31.31,0,0,0-.12-.42.23.23,0,0,0-.14,0q-16.62-.24-33.25,0c-8,.13-14.72,1.88-18.51,8.66q-9.78,17.46-19.93,34.73c-.15.25-.3.23-.47-.06" transform="translate(-254.5 -253.45)"/><path class="cls-1" d="M479.05,457.08c6.59-9.08,15.68-14.11,26.88-14.23q21.93-.23,45.05-.05a3.43,3.43,0,0,0,3.2-1.86L572.3,409a.56.56,0,0,0-.25-.76.78.78,0,0,0-.3-.07l-93.25,0c-.21,0-.38.23-.38.51h0l.09,48q0,1.49.84.33" transform="translate(-254.5 -253.45)"/><path class="cls-2" d="M684.62,488.49c-51.76-13.68-53,62.66,0,47.71a.75.75,0,0,0,.58-.7V518a.73.73,0,0,1,.44-.66c.09,0,6.5-2,3-2.09q-7.48-.3-15-.22a.43.43,0,0,0-.43.43v0a.44.44,0,0,0,.18.32,3,3,0,0,0,.8.51,8.92,8.92,0,0,1,4.08,1.83,2,2,0,0,1,.19,1.09v14.5a.73.73,0,0,1-.62.69c-35.26,6.55-32.13-54.4.89-43.36a1,1,0,0,1,.65.69l2,7.55a.82.82,0,0,0,.58.59c1.54.45,2.7-9.09,3-10.73a.59.59,0,0,0-.42-.69" transform="translate(-254.5 -253.45)"/><path class="cls-2" d="M698.28,490.21a2.08,2.08,0,0,1,1.35,2l-.06,41.19a.87.87,0,0,1-.37.78c-.32.19-5.18,1.87-4.54,2.46a1.22,1.22,0,0,0,.84.32h32a.62.62,0,0,0,.63-.56q.48-5.46.63-11c0-1.06-.91-1.65-1.47-.42q-2.81,6.11-4.06,8.48a.84.84,0,0,1-.73.46H707a.5.5,0,0,1-.5-.5v-20a.5.5,0,0,1,.5-.5h10.75a1,1,0,0,1,1,.77c.25,1,.91,6.11,2.57,5.18a.81.81,0,0,0,.43-.71V506c0-.48-.13-.87-.31-.93a1.43,1.43,0,0,0-1.26.1,1.47,1.47,0,0,0-.48.82l-1.11,3.58c-.08.25-.53.43-1.09.43H707c-.28,0-.51-.34-.51-.75h0l0-17.81A.51.51,0,0,1,707,491h14.75c.44,0,.8.17.87.42l1.77,6.66a1.5,1.5,0,0,0,.43.78c1.66,1.14,2.91-9.31,3.09-10.4a.41.41,0,0,0-.34-.46h-.05c-3,0-33-.31-33.06.47a.8.8,0,0,0,.62.69l3.2,1" transform="translate(-254.5 -253.45)"/><path class="cls-2" d="M740.1,490.15a2.18,2.18,0,0,1,1.53,2.35l-.22,41.25a.77.77,0,0,1-.41.77l-3.94,1.28a.76.76,0,0,0-.6.68c.06.86,23.74.54,33.13.46a.55.55,0,0,0,.54-.51q.57-5.64.61-11.31c0-.76-.76-1.35-1.25-.37q-2.18,4.37-4.06,8.68a.83.83,0,0,1-.68.57H749c-.28,0-.5-.34-.5-.75V513.5a.5.5,0,0,1,.5-.5h10.75a1,1,0,0,1,1,.74l1,4.25a1.3,1.3,0,0,0,.56.86c1.25.7,1.73-.57,1.67-1.61q-.35-5.71-.24-11.45a.77.77,0,0,0-.42-.75c-1.65-.68-2.15,2.73-2.36,3.67A1.56,1.56,0,0,1,759.5,510L749,510c-.28,0-.5-.34-.5-.75V491.5a.5.5,0,0,1,.5-.5h14.75c.43,0,.78.18.85.43l1.86,6.83a.83.83,0,0,0,.53.64c1.56.34,2.69-8.95,3-10.37a.44.44,0,0,0-.34-.52h-.09c-3.06,0-32.87-.3-33,.45a.72.72,0,0,0,.57.72l3,1" transform="translate(-254.5 -253.45)"/><path class="cls-2" d="M786.22,498.53l30.12,37.89c.28.35.54.58.65.57l2.32-.14c.27,0,.48-.36.48-.78q-.07-21-.25-42.08,0-4.28,4.48-4.55c.87-.05,1.18-.38.93-1a.8.8,0,0,0-.74-.44c-2,0-12.12-.53-13.19.1-.37.21-.32.43.14.65a16.59,16.59,0,0,0,3.18,1.19,1.89,1.89,0,0,1,1.55,1.79l-.13,32c0,.52-.19.54-.58.06l-28-35.24a1.29,1.29,0,0,0-.93-.57h-9a.66.66,0,0,0-.68.44c-.17.74,4,1.86,4.77,2.28a.88.88,0,0,1,.41.78v42.25a.75.75,0,0,1-.46.66c-.21.09-6.19,1.75-4.38,2.49a120.51,120.51,0,0,0,13.58,0c.35-.22.31-.44-.14-.66a16.7,16.7,0,0,0-3.44-1.34,1.46,1.46,0,0,1-1.15-1.38V498.75c0-.54.16-.61.47-.22" transform="translate(-254.5 -253.45)"/><path class="cls-2" d="M843,490.59c.2-.1,7-2.22,3.67-2.35-1.66-.06-16-.77-16.17.23,0,.27.2.57.58.69l3.43,1.12a1.92,1.92,0,0,1,1.17,1.9l0,41.38a.84.84,0,0,1-.44.76,14.86,14.86,0,0,1-3.6,1.34c-1.3.31-1.56,1.33,0,1.33q7,0,14.07-.19c5.12-.16-2.11-2-2.82-2.56a.93.93,0,0,1-.42-.74V491.25a.81.81,0,0,1,.51-.66" transform="translate(-254.5 -253.45)"/><path class="cls-2" d="M883,535.17l-2.54.74a1.07,1.07,0,0,0-.69.51c-.47.91,11.91.6,17.57.55,1.69,0,1.29-1.11,0-1.29a6.81,6.81,0,0,1-5-2.75Q885,521.85,878,511.08a1.28,1.28,0,0,1,0-1.38q5.67-8.9,11.11-16.89,1.29-1.89,6.64-4.33c.42-.19.4-.29,0-.3L880.75,488a.48.48,0,0,0-.5.41.5.5,0,0,0,0,.12c.2.63,2.76,1.23,3.25,1.36,1.41.39,1.72,1.23.94,2.53L876,506.51a.63.63,0,0,1-.85.24.58.58,0,0,1-.21-.2l-8.75-13.76c-.92-1.45-.6-2.4,1-2.87l2.52-.76a.75.75,0,0,0,.6-.68c-.06-.75-11.53-.5-17.71-.46a.94.94,0,0,0-.82.38c-.2.35-.06.59.41.73,2.65.76,4.32,1.06,5.93,3.49q6.25,9.45,12.38,19a.76.76,0,0,1,0,.83q-6.53,10-13,20a7.39,7.39,0,0,1-5.59,3.21c-1,.13-1.73,1.28-.13,1.31,1.36,0,14.83.34,14.72-.49a.83.83,0,0,0-.63-.58L863.2,535q-2.12-.71-.81-2.87l10-16.73a.36.36,0,0,1,.51-.1.34.34,0,0,1,.12.12L883.74,532q1.6,2.49-.77,3.17" transform="translate(-254.5 -253.45)"/><path class="cls-1" d="M255.51,552.48c16.34,107,101,190.27,205.64,211,21.09,4.18,43.19,5.26,64.66,4.35,90-3.8,174.69-55.35,216.68-135.92a267,267,0,0,0,26-78.4,1.07,1.07,0,0,0-.88-1.22h-.14l-8.25-.34c-.26,0-.49.25-.55.6-10,61.17-42.46,115.12-91.17,153.5-50.16,39.52-113.95,56.33-177.86,51.31-109.18-8.58-208.3-94.83-224-204.47a.75.75,0,0,0-.69-.66l-9.19-.15a.33.33,0,0,0-.31.35s0,0,0,.06" transform="translate(-254.5 -253.45)"/><path class="cls-3" d="M264.74,469.83l-7.75-.08a1.17,1.17,0,0,1-1.23-1.06.91.91,0,0,1,0-.17Q266,409.09,299.68,362.43C341.25,304.91,404.11,266.66,474.25,257c62.78-8.64,127.6,4.64,181,39.75C714,335.39,757.49,399.07,767.94,469.2a.46.46,0,0,1-.37.54H759a.61.61,0,0,1-.62-.47c-26.67-140.84-161-229.51-301.88-199-97.82,21.15-174.37,100.46-191.12,199.16A.6.6,0,0,1,264.74,469.83Z" transform="translate(-254.5 -253.45)"/><path class="cls-3" d="M473.31,497.26q10.15-17.26,19.93-34.73c3.79-6.78,10.52-8.53,18.51-8.66q16.63-.28,33.25,0a.32.32,0,0,1,.3.32.33.33,0,0,1,0,.14l-49.13,84.78a1.09,1.09,0,0,0,0,1.09l14.72,26.52c.09.17.19.16.29,0q42.52-75.37,85-150.75a67.37,67.37,0,0,1,4.81-7.53,1,1,0,0,1,.79-.37q22.5.56,45-.06c.81,0,1,.32.62,1q-64.1,113-128.26,226.35-5.24,9.25-7,12.22a.29.29,0,0,1-.4.1.35.35,0,0,1-.1-.11Q445.57,530.16,379.29,413c-.43-.75-1.18-2.21-2.27-4.38a.33.33,0,0,1,.1-.43.28.28,0,0,1,.13,0l45,.09c.23,0,.5.23.7.59l49.89,88.4C473,497.49,473.16,497.51,473.31,497.26Z" transform="translate(-254.5 -253.45)"/><path class="cls-3" d="M479.05,457.08q-.84,1.16-.84-.33l-.09-48c0-.28.17-.51.38-.51h0l93.25,0a.61.61,0,0,1,.62.56.52.52,0,0,1-.07.27l-18.12,31.9a3.43,3.43,0,0,1-3.2,1.86q-23.12-.17-45.05.05C494.73,443,485.64,448,479.05,457.08Z" transform="translate(-254.5 -253.45)"/><path class="cls-3" d="M684.67,536.2c-53.09,14.95-51.81-61.39,0-47.71a.59.59,0,0,1,.42.69c-.35,1.64-1.51,11.18-3,10.73a.82.82,0,0,1-.58-.59l-2-7.55a1,1,0,0,0-.65-.69c-33-11-36.15,49.91-.89,43.36a.73.73,0,0,0,.62-.69v-14.5a2,2,0,0,0-.19-1.09,8.92,8.92,0,0,0-4.08-1.83,3,3,0,0,1-.8-.51.44.44,0,0,1-.18-.32.43.43,0,0,1,.39-.47h0q7.52-.07,15,.22c3.51.14-2.9,2-3,2.09a.73.73,0,0,0-.44.66v17.5A.75.75,0,0,1,684.67,536.2Z" transform="translate(-254.5 -253.45)"/><path class="cls-3" d="M698.28,490.21l-3.2-1a.8.8,0,0,1-.62-.69c0-.78,30-.47,33.06-.47a.39.39,0,0,1,.39.41v0c-.18,1.09-1.43,11.54-3.09,10.4a1.5,1.5,0,0,1-.43-.78l-1.77-6.66c-.07-.25-.43-.42-.87-.42H707a.51.51,0,0,0-.55.44l0,17.81c0,.41.23.75.51.75h10.5c.56,0,1-.18,1.09-.43L719.7,506a1.47,1.47,0,0,1,.48-.82,1.43,1.43,0,0,1,1.26-.1c.18.06.31.45.31.93v12.25a.81.81,0,0,1-.43.71c-1.66.93-2.32-4.19-2.57-5.18a1,1,0,0,0-1-.77H707a.5.5,0,0,0-.5.5v20a.5.5,0,0,0,.5.5h15.5a.84.84,0,0,0,.73-.46q1.24-2.37,4.06-8.48c.56-1.23,1.5-.64,1.47.42q-.15,5.5-.63,11a.62.62,0,0,1-.63.56h-32a1.22,1.22,0,0,1-.84-.32c-.64-.59,4.22-2.27,4.54-2.46a.87.87,0,0,0,.37-.78l.06-41.19A2.08,2.08,0,0,0,698.28,490.21Z" transform="translate(-254.5 -253.45)"/><path class="cls-3" d="M740.1,490.15l-3-1a.72.72,0,0,1-.57-.72c.14-.75,30-.45,33-.45a.44.44,0,0,1,.44.44.28.28,0,0,1,0,.09c-.27,1.42-1.4,10.71-3,10.37a.83.83,0,0,1-.53-.64l-1.86-6.83c-.07-.25-.42-.43-.85-.43H749a.5.5,0,0,0-.5.5v17.75c0,.41.22.75.5.75l10.5,0a1.56,1.56,0,0,0,1.47-1.26c.21-.94.71-4.35,2.36-3.67a.77.77,0,0,1,.42.75q-.11,5.73.24,11.45c.06,1-.42,2.31-1.67,1.61a1.3,1.3,0,0,1-.56-.86l-1-4.25a1,1,0,0,0-1-.74H749a.5.5,0,0,0-.5.5v19.75c0,.41.22.75.5.75h15.75a.83.83,0,0,0,.68-.57q1.89-4.32,4.06-8.68c.49-1,1.26-.39,1.25.37q0,5.67-.61,11.31a.55.55,0,0,1-.54.51c-9.39.08-33.07.4-33.13-.46a.76.76,0,0,1,.6-.68l3.94-1.28a.77.77,0,0,0,.41-.77l.22-41.25A2.18,2.18,0,0,0,740.1,490.15Z" transform="translate(-254.5 -253.45)"/><path class="cls-3" d="M785.75,498.75V533.5a1.46,1.46,0,0,0,1.15,1.38,16.7,16.7,0,0,1,3.44,1.34c.45.22.49.44.14.66a120.51,120.51,0,0,1-13.58,0c-1.81-.74,4.17-2.4,4.38-2.49a.75.75,0,0,0,.46-.66V491.5a.88.88,0,0,0-.41-.78c-.75-.42-4.94-1.54-4.77-2.28a.66.66,0,0,1,.68-.44h9a1.29,1.29,0,0,1,.93.57l28,35.24c.39.48.58.46.58-.06l.13-32a1.89,1.89,0,0,0-1.55-1.79,16.59,16.59,0,0,1-3.18-1.19c-.46-.22-.51-.44-.14-.65,1.07-.63,11.24-.11,13.19-.1a.8.8,0,0,1,.74.44c.25.6-.06.93-.93,1q-4.51.27-4.48,4.55.16,21,.25,42.08c0,.42-.21.77-.48.78L817,537c-.11,0-.37-.22-.65-.57l-30.12-37.89C785.91,498.14,785.75,498.21,785.75,498.75Z" transform="translate(-254.5 -253.45)"/><path class="cls-3" d="M842.5,491.25V533.5a.93.93,0,0,0,.42.74c.71.51,7.94,2.4,2.82,2.56q-7,.21-14.07.19c-1.6,0-1.34-1,0-1.33a14.86,14.86,0,0,0,3.6-1.34.84.84,0,0,0,.44-.76l0-41.38a1.92,1.92,0,0,0-1.17-1.9l-3.43-1.12c-.38-.12-.63-.42-.58-.69.18-1,14.51-.29,16.17-.23,3.28.13-3.47,2.25-3.67,2.35A.81.81,0,0,0,842.5,491.25Z" transform="translate(-254.5 -253.45)"/><path class="cls-3" d="M883,535.17q2.37-.67.77-3.17l-10.69-16.56a.38.38,0,0,0-.51-.14.34.34,0,0,0-.12.12l-10,16.73q-1.3,2.16.81,2.87l2.62.88a.83.83,0,0,1,.63.58c.11.83-13.36.51-14.72.49-1.6,0-.84-1.18.13-1.31a7.39,7.39,0,0,0,5.59-3.21q6.48-10.05,13-20a.76.76,0,0,0,0-.83q-6.12-9.51-12.38-19c-1.61-2.43-3.28-2.73-5.93-3.49-.47-.14-.61-.38-.41-.73a.94.94,0,0,1,.82-.38c6.18,0,17.65-.29,17.71.46a.75.75,0,0,1-.6.68l-2.52.76c-1.56.47-1.88,1.42-1,2.87L875,506.55a.6.6,0,0,0,.85.18.63.63,0,0,0,.21-.22l8.45-14.05c.78-1.3.47-2.14-.94-2.53-.49-.13-3-.73-3.25-1.36a.42.42,0,0,1,.34-.51l.14,0,14.94.14c.45,0,.47.11,0,.3q-5.36,2.44-6.64,4.33-5.45,8-11.11,16.89a1.28,1.28,0,0,0,0,1.38q7,10.77,14.33,21.85a6.81,6.81,0,0,0,5,2.75c1.27.18,1.67,1.28,0,1.29-5.66,0-18,.36-17.57-.55a1.07,1.07,0,0,1,.69-.51Z" transform="translate(-254.5 -253.45)"/><path class="cls-3" d="M461.15,763.48c-104.61-20.73-189.3-104-205.64-211a.34.34,0,0,1,.25-.4h.05l9.19.15a.75.75,0,0,1,.69.66c15.69,109.64,114.81,195.89,224,204.47,63.91,5,127.7-11.79,177.86-51.31,48.71-38.38,81.18-92.33,91.17-153.5.06-.35.29-.61.55-.6l8.25.34a1.06,1.06,0,0,1,1,1.1.57.57,0,0,1,0,.13,267,267,0,0,1-26,78.4c-42,80.57-126.7,132.12-216.68,135.92C504.34,768.74,482.24,767.66,461.15,763.48Z" transform="translate(-254.5 -253.45)"/></svg>